<?xml version="1.0" encoding="utf-8"?>
<!-- Generator: Adobe Illustrator 24.0.0, SVG Export Plug-In . SVG Version: 6.00 Build 0)  -->
<svg version="1.1" id="Layer_1" xmlns="http://www.w3.org/2000/svg" xmlns:xlink="http://www.w3.org/1999/xlink" x="0px" y="0px"
	 viewBox="0 0 1000 625" style="enable-background:new 0 0 1000 625;" xml:space="preserve">
<style type="text/css">
	.st0{fill:none;stroke:#000000;stroke-miterlimit:10;}
</style>
<line class="st0" x1="0" y1="600" x2="1000" y2="600"/>
<line class="st0" x1="0" y1="575" x2="1000" y2="575"/>
<line class="st0" x1="0" y1="550" x2="1000" y2="550"/>
<line class="st0" x1="0" y1="525" x2="1000" y2="525"/>
<line class="st0" x1="0" y1="500" x2="1000" y2="500"/>
<line class="st0" x1="0" y1="475" x2="1000" y2="475"/>
<line class="st0" x1="0" y1="450" x2="1000" y2="450"/>
<line class="st0" x1="0" y1="425" x2="1000" y2="425"/>
<line class="st0" x1="0" y1="400" x2="1000" y2="400"/>
<line class="st0" x1="0" y1="375" x2="1000" y2="375"/>
<line class="st0" x1="0" y1="350" x2="1000" y2="350"/>
<line class="st0" x1="0" y1="325" x2="1000" y2="325"/>
<line class="st0" x1="0" y1="300" x2="1000" y2="300"/>
<line class="st0" x1="0" y1="275" x2="1000" y2="275"/>
<line class="st0" x1="0" y1="250" x2="1000" y2="250"/>
<line class="st0" x1="0" y1="225" x2="1000" y2="225"/>
<line class="st0" x1="0" y1="200" x2="1000" y2="200"/>
<line class="st0" x1="0" y1="175" x2="1000" y2="175"/>
<line class="st0" x1="0" y1="150" x2="1000" y2="150"/>
<line class="st0" x1="0" y1="125" x2="1000" y2="125"/>
<line class="st0" x1="0" y1="100" x2="1000" y2="100"/>
<line class="st0" x1="0" y1="75" x2="1000" y2="75"/>
<line class="st0" x1="0" y1="50" x2="1000" y2="50"/>
<line class="st0" x1="0" y1="25" x2="1000" y2="25"/>
<line class="st0" x1="975" y1="0" x2="975" y2="625"/>
<line class="st0" x1="950" y1="0" x2="950" y2="625"/>
<line class="st0" x1="925" y1="0" x2="925" y2="625"/>
<line class="st0" x1="900" y1="0" x2="900" y2="625"/>
<line class="st0" x1="875" y1="0" x2="875" y2="625"/>
<line class="st0" x1="850" y1="0" x2="850" y2="625"/>
<line class="st0" x1="825" y1="0" x2="825" y2="625"/>
<line class="st0" x1="800" y1="0" x2="800" y2="625"/>
<line class="st0" x1="775" y1="0" x2="775" y2="625"/>
<line class="st0" x1="750" y1="0" x2="750" y2="625"/>
<line class="st0" x1="725" y1="0" x2="725" y2="625"/>
<line class="st0" x1="700" y1="0" x2="700" y2="625"/>
<line class="st0" x1="675" y1="0" x2="675" y2="625"/>
<line class="st0" x1="650" y1="0" x2="650" y2="625"/>
<line class="st0" x1="625" y1="0" x2="625" y2="625"/>
<line class="st0" x1="600" y1="0" x2="600" y2="625"/>
<line class="st0" x1="575" y1="0" x2="575" y2="625"/>
<line class="st0" x1="550" y1="0" x2="550" y2="625"/>
<line class="st0" x1="525" y1="0" x2="525" y2="625"/>
<line class="st0" x1="500" y1="0" x2="500" y2="625"/>
<line class="st0" x1="475" y1="0" x2="475" y2="625"/>
<line class="st0" x1="450" y1="0" x2="450" y2="625"/>
<line class="st0" x1="425" y1="0" x2="425" y2="625"/>
<line class="st0" x1="400" y1="0" x2="400" y2="625"/>
<line class="st0" x1="375" y1="0" x2="375" y2="625"/>
<line class="st0" x1="350" y1="0" x2="350" y2="625"/>
<line class="st0" x1="325" y1="0" x2="325" y2="625"/>
<line class="st0" x1="300" y1="0" x2="300" y2="625"/>
<line class="st0" x1="275" y1="0" x2="275" y2="625"/>
<line class="st0" x1="250" y1="0" x2="250" y2="625"/>
<line class="st0" x1="225" y1="0" x2="225" y2="625"/>
<line class="st0" x1="200" y1="0" x2="200" y2="625"/>
<line class="st0" x1="175" y1="0" x2="175" y2="625"/>
<line class="st0" x1="150" y1="0" x2="150" y2="625"/>
<line class="st0" x1="125" y1="0" x2="125" y2="625"/>
<line class="st0" x1="100" y1="0" x2="100" y2="625"/>
<line class="st0" x1="75" y1="0" x2="75" y2="625"/>
<line class="st0" x1="50" y1="0" x2="50" y2="625"/>
<line class="st0" x1="25" y1="0" x2="25" y2="625"/>
</svg>
